<svg width="529" height="627" viewBox="0 0 529 627" fill="none" xmlns="http://www.w3.org/2000/svg">
<g filter="url(#filter0_d_18_662)">
<rect x="85.9376" y="295.687" width="362.981" height="310.771" rx="5" transform="rotate(-15.8686 85.9376 295.687)" fill="#C3D1F6"/>
<rect x="32.5735" y="107.96" width="362.981" height="310.771" rx="5" transform="rotate(-15.8686 32.5735 107.96)" fill="#9098AC"/>
<path d="M178.761 472.197L184.297 480.446L193.853 477.73L187.719 485.544L193.255 493.793L183.928 490.374L177.793 498.189L178.163 488.261L168.835 484.842L178.391 482.125L178.761 472.197Z" fill="#C4C4C4"/>
<path d="M205.066 464.719L210.603 472.968L220.159 470.252L214.025 478.067L219.561 486.316L210.233 482.896L204.099 490.711L204.468 480.783L195.141 477.364L204.697 474.647L205.066 464.719Z" fill="#C4C4C4"/>
<path d="M231.372 457.242L236.908 465.491L246.464 462.774L240.33 470.589L245.867 478.838L236.539 475.418L230.405 483.233L230.774 473.305L221.446 469.886L231.002 467.17L231.372 457.242Z" fill="#C4C4C4"/>
<path d="M257.678 449.764L263.214 458.013L272.77 455.296L266.636 463.111L272.172 471.36L262.845 467.941L256.71 475.755L257.08 465.827L247.752 462.408L257.308 459.692L257.678 449.764Z" fill="#C4C4C4"/>
<path d="M283.983 442.286L289.52 450.535L299.076 447.819L292.942 455.633L298.478 463.882L289.15 460.463L283.016 468.277L283.386 458.35L274.058 454.93L283.614 452.214L283.983 442.286Z" fill="#C4C4C4"/>
<rect x="176.812" y="524.444" width="64.6405" height="16.1601" rx="5" transform="rotate(-15.8686 176.812 524.444)" fill="#312C2C"/>
<rect x="64.6453" y="129.859" width="64.6405" height="16.1601" rx="5" transform="rotate(-15.8686 64.6453 129.859)" fill="#312C2C"/>
<rect x="149.96" y="429.983" width="321.959" height="4.97234" rx="2.48617" transform="rotate(-15.8686 149.96 429.983)" fill="#312C2C"/>
<rect x="153.359" y="441.94" width="232.457" height="4.97234" rx="2.48617" transform="rotate(-15.8686 153.359 441.94)" fill="#312C2C"/>
<rect x="309.761" y="446.589" width="29.8341" height="4.97234" rx="2.48617" transform="rotate(-15.8686 309.761 446.589)" fill="#312C2C"/>
<path d="M354.91 63.5078L354.834 63.6427L354.688 63.571C348.378 60.4811 344.206 58.4377 343.345 55.4079C342.749 53.3111 343.889 51.2874 346.005 50.6858C347.634 50.2226 349.519 50.8198 350.486 52.0862L352.454 51.5268C352.609 49.9416 353.898 48.442 355.528 47.9788C357.644 47.3773 359.678 48.4987 360.274 50.5954C361.135 53.6253 358.662 57.5576 354.91 63.5078ZM354.932 45.8821C353.09 46.4054 351.565 47.7569 350.79 49.4162C349.258 48.4126 347.25 48.0657 345.409 48.589C342.15 49.5154 340.308 52.7699 341.228 56.0094C342.352 59.9618 346.87 62.1787 353.711 65.5256L355.639 66.4734L356.78 64.6534C360.837 58.2084 363.514 53.9463 362.39 49.9939C361.469 46.7544 358.19 44.9557 354.932 45.8821Z" fill="#686B6F"/>
</g>
<defs>
<filter id="filter0_d_18_662" x="0.573547" y="0.709274" width="527.487" height="625.906" filterUnits="userSpaceOnUse" color-interpolation-filters="sRGB">
<feFlood flood-opacity="0" result="BackgroundImageFix"/>
<feColorMatrix in="SourceAlpha" type="matrix" values="0 0 0 0 0 0 0 0 0 0 0 0 0 0 0 0 0 0 127 0" result="hardAlpha"/>
<feOffset dx="-12" dy="12"/>
<feGaussianBlur stdDeviation="10"/>
<feComposite in2="hardAlpha" operator="out"/>
<feColorMatrix type="matrix" values="0 0 0 0 0 0 0 0 0 0 0 0 0 0 0 0 0 0 0.15 0"/>
<feBlend mode="normal" in2="BackgroundImageFix" result="effect1_dropShadow_18_662"/>
<feBlend mode="normal" in="SourceGraphic" in2="effect1_dropShadow_18_662" result="shape"/>
</filter>
</defs>
</svg>
