<svg width="37" height="37" viewBox="0 0 37 37" fill="none" xmlns="http://www.w3.org/2000/svg">
<rect width="37" height="37" rx="4" fill="#193E75"/>
<path d="M18.9404 7.39999C13.2492 7.39999 8.6333 12.0104 8.6333 17.6967C8.6333 22.2462 11.5863 26.1057 15.6825 27.4675C16.197 27.5627 16.3637 27.2435 16.3637 26.9724V25.0555C13.4966 25.6784 12.8996 23.8405 12.8996 23.8405C12.4306 22.6503 11.7546 22.3337 11.7546 22.3337C10.8193 21.6944 11.8259 21.7082 11.8259 21.7082C12.8609 21.7803 13.4055 22.7696 13.4055 22.7696C14.3246 24.3433 15.8165 23.8885 16.4049 23.6251C16.4968 22.9601 16.7639 22.5053 17.0594 22.2488C14.7703 21.987 12.3636 21.1041 12.3636 17.1596C12.3636 16.0347 12.7665 15.1165 13.4253 14.3958C13.3188 14.1358 12.9657 13.0881 13.5258 11.6706C13.5258 11.6706 14.3916 11.3943 16.3611 12.726C17.1831 12.4977 18.0643 12.3836 18.9404 12.3793C19.8166 12.3836 20.6987 12.4977 21.5224 12.726C23.4902 11.3943 24.3543 11.6706 24.3543 11.6706C24.9152 13.0889 24.5621 14.1366 24.4556 14.3958C25.117 15.1165 25.5164 16.0355 25.5164 17.1596C25.5164 21.1144 23.1054 21.9853 20.8103 22.2402C21.1797 22.5594 21.5172 23.1858 21.5172 24.1468V26.9724C21.5172 27.2461 21.6821 27.5679 22.2052 27.4666C26.298 26.1032 29.2476 22.2445 29.2476 17.6967C29.2476 12.0104 24.6326 7.39999 18.9404 7.39999Z" fill="white"/>
</svg>
